<svg xmlns="http://www.w3.org/2000/svg" viewBox="20363 1882 21.059 21.975"><defs><style>.a{fill:#d80027;}</style></defs><g transform="translate(20363 1882)"><g transform="translate(0)"><g transform="translate(0)"><path class="a" d="M31.726,13.734a1.828,1.828,0,0,0-.621-1.373,1.808,1.808,0,0,0-.327-2.969A10.067,10.067,0,1,0,20.739,20.144a9.973,9.973,0,0,0,3.662-.7v.7a1.831,1.831,0,1,0,3.662,0V18.312H29.9a1.83,1.83,0,0,0,1.21-3.2A1.828,1.828,0,0,0,31.726,13.734ZM24.4,12.363v6.091a9.072,9.072,0,0,1-3.663.774,9.156,9.156,0,1,1,9.1-10.072l-2.236,0A3.208,3.208,0,0,0,24.4,12.363Zm2.747,7.781a.916.916,0,0,1-1.831,0V12.363A2.284,2.284,0,0,1,27.388,10.1a1.8,1.8,0,0,0,.393,2.266,1.814,1.814,0,0,0-.317,2.4,1.818,1.818,0,0,0-.315,3.3v2.086ZM29.9,17.4H28.064a.916.916,0,1,1,0-1.831H29.9a.916.916,0,1,1,0,1.831Zm0-2.747H28.98a.916.916,0,1,1,0-1.831H29.9a.916.916,0,1,1,0,1.831Zm0-2.747h-.917a.916.916,0,0,1-.648-1.562.906.906,0,0,1,.647-.268H29.9a.916.916,0,0,1,0,1.831Z" transform="translate(-10.667)"/><ellipse class="a" cx="0.916" cy="0.916" rx="0.916" ry="0.916" transform="translate(12.819 6.409)"/><ellipse class="a" cx="0.916" cy="0.916" rx="0.916" ry="0.916" transform="translate(5.494 6.409)"/><path class="a" d="M186.369,320h-4.578a.458.458,0,0,0,0,.916h4.578a.458.458,0,0,0,0-.916Z" transform="translate(-174.008 -306.266)"/></g></g></g></svg>