<svg xmlns="http://www.w3.org/2000/svg" viewBox="20366 1638 21.082 22"><defs><style>.a{fill:#25701b;}</style></defs><g transform="translate(20366 1638)"><g transform="translate(0)"><g transform="translate(0)"><path class="a" d="M30.8,9.4a10.086,10.086,0,1,0-6.218,10A1.833,1.833,0,0,0,26.25,22h0l2.293,0A3.212,3.212,0,0,0,31.75,18.79V11A1.827,1.827,0,0,0,30.8,9.4Zm-6.384,8.013a1.808,1.808,0,0,0,.265.929,9.159,9.159,0,1,1,5.18-9.174A1.833,1.833,0,0,0,28.084,11v1.833H27.038c.036-.118.088-.233.117-.352a.458.458,0,0,0-.446-.565H14.792a.458.458,0,0,0-.446.564,6.575,6.575,0,0,0,6.4,4.936,6.75,6.75,0,0,0,4.183-1.49c.036.038.067.08.106.115A1.83,1.83,0,0,0,24.417,17.417Zm.06-2.3c-.111.094-.225.185-.343.27a3.2,3.2,0,0,0-3.383-.4,3.2,3.2,0,0,0-3.39.4,5.471,5.471,0,0,1-1.955-2.557H26.093l-.007.017a1.807,1.807,0,0,0-1.61,2.264Zm-1.2.788a5.7,5.7,0,0,1-5.064.009A2.275,2.275,0,0,1,20.52,15.9a.453.453,0,0,0,.461,0A2.275,2.275,0,0,1,23.276,15.9Zm7.558,2.888a2.294,2.294,0,0,1-2.29,2.292l-2.293,0h0a.917.917,0,0,1,0-1.833h.458a.458.458,0,1,0,0-.917H26.25a.917.917,0,1,1,0-1.833h.458a.458.458,0,1,0,0-.917H26.25a.917.917,0,1,1,0-1.833h3.208a.458.458,0,1,0,0-.917H29V11a.917.917,0,0,1,1.833,0Z" transform="translate(-10.667)"/><ellipse class="a" cx="0.917" cy="0.917" rx="0.917" ry="0.917" transform="translate(12.833 6.417)"/><ellipse class="a" cx="0.917" cy="0.917" rx="0.917" ry="0.917" transform="translate(5.5 6.417)"/></g></g></g></svg>